<mxfile host="app.diagrams.net" agent="Mozilla/5.0 (Windows NT 10.0; Win64; x64) AppleWebKit/537.36 (KHTML, like Gecko) Chrome/141.0.0.0 Safari/537.36" version="28.2.6" pages="2">
  <diagram id="C5RBs43oDa-KdzZeNtuy" name="Page-1">
    <mxGraphModel dx="2253" dy="795" grid="1" gridSize="10" guides="1" tooltips="1" connect="1" arrows="1" fold="1" page="1" pageScale="1" pageWidth="827" pageHeight="1169" math="0" shadow="0">
      <root>
        <mxCell id="WIyWlLk6GJQsqaUBKTNV-0" />
        <mxCell id="WIyWlLk6GJQsqaUBKTNV-1" parent="WIyWlLk6GJQsqaUBKTNV-0" />
        <mxCell id="zkfFHV4jXpPFQw0GAbJ--0" value="Employee" style="swimlane;fontStyle=0;align=center;verticalAlign=top;childLayout=stackLayout;horizontal=1;startSize=26;horizontalStack=0;resizeParent=1;resizeLast=0;collapsible=1;marginBottom=0;rounded=0;shadow=0;strokeWidth=1;" parent="WIyWlLk6GJQsqaUBKTNV-1" vertex="1">
          <mxGeometry x="200" y="110" width="160" height="268" as="geometry">
            <mxRectangle x="230" y="140" width="160" height="26" as="alternateBounds" />
          </mxGeometry>
        </mxCell>
        <mxCell id="zkfFHV4jXpPFQw0GAbJ--1" value="id: String" style="text;align=left;verticalAlign=top;spacingLeft=4;spacingRight=4;overflow=hidden;rotatable=0;points=[[0,0.5],[1,0.5]];portConstraint=eastwest;" parent="zkfFHV4jXpPFQw0GAbJ--0" vertex="1">
          <mxGeometry y="26" width="160" height="26" as="geometry" />
        </mxCell>
        <mxCell id="zkfFHV4jXpPFQw0GAbJ--2" value="name: String" style="text;align=left;verticalAlign=top;spacingLeft=4;spacingRight=4;overflow=hidden;rotatable=0;points=[[0,0.5],[1,0.5]];portConstraint=eastwest;rounded=0;shadow=0;html=0;" parent="zkfFHV4jXpPFQw0GAbJ--0" vertex="1">
          <mxGeometry y="52" width="160" height="26" as="geometry" />
        </mxCell>
        <mxCell id="zkfFHV4jXpPFQw0GAbJ--3" value="position: String" style="text;align=left;verticalAlign=top;spacingLeft=4;spacingRight=4;overflow=hidden;rotatable=0;points=[[0,0.5],[1,0.5]];portConstraint=eastwest;rounded=0;shadow=0;html=0;" parent="zkfFHV4jXpPFQw0GAbJ--0" vertex="1">
          <mxGeometry y="78" width="160" height="26" as="geometry" />
        </mxCell>
        <mxCell id="D50i9omcUcY36TqTnj20-0" value="salary: double" style="text;align=left;verticalAlign=top;spacingLeft=4;spacingRight=4;overflow=hidden;rotatable=0;points=[[0,0.5],[1,0.5]];portConstraint=eastwest;rounded=0;shadow=0;html=0;" vertex="1" parent="zkfFHV4jXpPFQw0GAbJ--0">
          <mxGeometry y="104" width="160" height="26" as="geometry" />
        </mxCell>
        <mxCell id="D50i9omcUcY36TqTnj20-1" value="department: Department" style="text;align=left;verticalAlign=top;spacingLeft=4;spacingRight=4;overflow=hidden;rotatable=0;points=[[0,0.5],[1,0.5]];portConstraint=eastwest;rounded=0;shadow=0;html=0;" vertex="1" parent="zkfFHV4jXpPFQw0GAbJ--0">
          <mxGeometry y="130" width="160" height="26" as="geometry" />
        </mxCell>
        <mxCell id="D50i9omcUcY36TqTnj20-29" value="manager: Employee" style="text;align=left;verticalAlign=top;spacingLeft=4;spacingRight=4;overflow=hidden;rotatable=0;points=[[0,0.5],[1,0.5]];portConstraint=eastwest;rounded=0;shadow=0;html=0;" vertex="1" parent="zkfFHV4jXpPFQw0GAbJ--0">
          <mxGeometry y="156" width="160" height="26" as="geometry" />
        </mxCell>
        <mxCell id="zkfFHV4jXpPFQw0GAbJ--4" value="" style="line;html=1;strokeWidth=1;align=left;verticalAlign=middle;spacingTop=-1;spacingLeft=3;spacingRight=3;rotatable=0;labelPosition=right;points=[];portConstraint=eastwest;" parent="zkfFHV4jXpPFQw0GAbJ--0" vertex="1">
          <mxGeometry y="182" width="160" height="8" as="geometry" />
        </mxCell>
        <mxCell id="zkfFHV4jXpPFQw0GAbJ--5" value="getAnnualSalary(): double" style="text;align=left;verticalAlign=top;spacingLeft=4;spacingRight=4;overflow=hidden;rotatable=0;points=[[0,0.5],[1,0.5]];portConstraint=eastwest;" parent="zkfFHV4jXpPFQw0GAbJ--0" vertex="1">
          <mxGeometry y="190" width="160" height="26" as="geometry" />
        </mxCell>
        <mxCell id="D50i9omcUcY36TqTnj20-2" value="promote(newPosition)" style="text;align=left;verticalAlign=top;spacingLeft=4;spacingRight=4;overflow=hidden;rotatable=0;points=[[0,0.5],[1,0.5]];portConstraint=eastwest;" vertex="1" parent="zkfFHV4jXpPFQw0GAbJ--0">
          <mxGeometry y="216" width="160" height="26" as="geometry" />
        </mxCell>
        <mxCell id="D50i9omcUcY36TqTnj20-3" value="assignManager(Employee)" style="text;align=left;verticalAlign=top;spacingLeft=4;spacingRight=4;overflow=hidden;rotatable=0;points=[[0,0.5],[1,0.5]];portConstraint=eastwest;" vertex="1" parent="zkfFHV4jXpPFQw0GAbJ--0">
          <mxGeometry y="242" width="160" height="26" as="geometry" />
        </mxCell>
        <mxCell id="D50i9omcUcY36TqTnj20-27" style="edgeStyle=orthogonalEdgeStyle;rounded=0;orthogonalLoop=1;jettySize=auto;html=1;exitX=1;exitY=0.5;exitDx=0;exitDy=0;" edge="1" parent="zkfFHV4jXpPFQw0GAbJ--0" source="D50i9omcUcY36TqTnj20-0" target="D50i9omcUcY36TqTnj20-0">
          <mxGeometry relative="1" as="geometry" />
        </mxCell>
        <mxCell id="zkfFHV4jXpPFQw0GAbJ--6" value="Contract" style="swimlane;fontStyle=0;align=center;verticalAlign=top;childLayout=stackLayout;horizontal=1;startSize=26;horizontalStack=0;resizeParent=1;resizeLast=0;collapsible=1;marginBottom=0;rounded=0;shadow=0;strokeWidth=1;" parent="WIyWlLk6GJQsqaUBKTNV-1" vertex="1">
          <mxGeometry x="210" y="440" width="160" height="190" as="geometry">
            <mxRectangle x="130" y="380" width="160" height="26" as="alternateBounds" />
          </mxGeometry>
        </mxCell>
        <mxCell id="zkfFHV4jXpPFQw0GAbJ--7" value="id: String" style="text;align=left;verticalAlign=top;spacingLeft=4;spacingRight=4;overflow=hidden;rotatable=0;points=[[0,0.5],[1,0.5]];portConstraint=eastwest;" parent="zkfFHV4jXpPFQw0GAbJ--6" vertex="1">
          <mxGeometry y="26" width="160" height="26" as="geometry" />
        </mxCell>
        <mxCell id="zkfFHV4jXpPFQw0GAbJ--8" value="startDate: Date" style="text;align=left;verticalAlign=top;spacingLeft=4;spacingRight=4;overflow=hidden;rotatable=0;points=[[0,0.5],[1,0.5]];portConstraint=eastwest;rounded=0;shadow=0;html=0;" parent="zkfFHV4jXpPFQw0GAbJ--6" vertex="1">
          <mxGeometry y="52" width="160" height="26" as="geometry" />
        </mxCell>
        <mxCell id="D50i9omcUcY36TqTnj20-12" value="type: ContractType" style="text;align=left;verticalAlign=top;spacingLeft=4;spacingRight=4;overflow=hidden;rotatable=0;points=[[0,0.5],[1,0.5]];portConstraint=eastwest;rounded=0;shadow=0;html=0;" vertex="1" parent="zkfFHV4jXpPFQw0GAbJ--6">
          <mxGeometry y="78" width="160" height="26" as="geometry" />
        </mxCell>
        <mxCell id="D50i9omcUcY36TqTnj20-6" value="isActive: boolean" style="text;align=left;verticalAlign=top;spacingLeft=4;spacingRight=4;overflow=hidden;rotatable=0;points=[[0,0.5],[1,0.5]];portConstraint=eastwest;rounded=0;shadow=0;html=0;" vertex="1" parent="zkfFHV4jXpPFQw0GAbJ--6">
          <mxGeometry y="104" width="160" height="26" as="geometry" />
        </mxCell>
        <mxCell id="zkfFHV4jXpPFQw0GAbJ--9" value="" style="line;html=1;strokeWidth=1;align=left;verticalAlign=middle;spacingTop=-1;spacingLeft=3;spacingRight=3;rotatable=0;labelPosition=right;points=[];portConstraint=eastwest;" parent="zkfFHV4jXpPFQw0GAbJ--6" vertex="1">
          <mxGeometry y="130" width="160" height="8" as="geometry" />
        </mxCell>
        <mxCell id="zkfFHV4jXpPFQw0GAbJ--10" value="renew()" style="text;align=left;verticalAlign=top;spacingLeft=4;spacingRight=4;overflow=hidden;rotatable=0;points=[[0,0.5],[1,0.5]];portConstraint=eastwest;fontStyle=4" parent="zkfFHV4jXpPFQw0GAbJ--6" vertex="1">
          <mxGeometry y="138" width="160" height="26" as="geometry" />
        </mxCell>
        <mxCell id="D50i9omcUcY36TqTnj20-13" value="terminate()" style="text;align=left;verticalAlign=top;spacingLeft=4;spacingRight=4;overflow=hidden;rotatable=0;points=[[0,0.5],[1,0.5]];portConstraint=eastwest;fontStyle=4" vertex="1" parent="zkfFHV4jXpPFQw0GAbJ--6">
          <mxGeometry y="164" width="160" height="26" as="geometry" />
        </mxCell>
        <mxCell id="zkfFHV4jXpPFQw0GAbJ--13" value="Skill" style="swimlane;fontStyle=0;align=center;verticalAlign=top;childLayout=stackLayout;horizontal=1;startSize=26;horizontalStack=0;resizeParent=1;resizeLast=0;collapsible=1;marginBottom=0;rounded=0;shadow=0;strokeWidth=1;" parent="WIyWlLk6GJQsqaUBKTNV-1" vertex="1">
          <mxGeometry x="-30" y="70" width="160" height="150" as="geometry">
            <mxRectangle x="340" y="380" width="170" height="26" as="alternateBounds" />
          </mxGeometry>
        </mxCell>
        <mxCell id="zkfFHV4jXpPFQw0GAbJ--14" value="id: String" style="text;align=left;verticalAlign=top;spacingLeft=4;spacingRight=4;overflow=hidden;rotatable=0;points=[[0,0.5],[1,0.5]];portConstraint=eastwest;" parent="zkfFHV4jXpPFQw0GAbJ--13" vertex="1">
          <mxGeometry y="26" width="160" height="26" as="geometry" />
        </mxCell>
        <mxCell id="D50i9omcUcY36TqTnj20-14" value="name: String" style="text;align=left;verticalAlign=top;spacingLeft=4;spacingRight=4;overflow=hidden;rotatable=0;points=[[0,0.5],[1,0.5]];portConstraint=eastwest;" vertex="1" parent="zkfFHV4jXpPFQw0GAbJ--13">
          <mxGeometry y="52" width="160" height="26" as="geometry" />
        </mxCell>
        <mxCell id="D50i9omcUcY36TqTnj20-15" value="level: SkillLevel" style="text;align=left;verticalAlign=top;spacingLeft=4;spacingRight=4;overflow=hidden;rotatable=0;points=[[0,0.5],[1,0.5]];portConstraint=eastwest;" vertex="1" parent="zkfFHV4jXpPFQw0GAbJ--13">
          <mxGeometry y="78" width="160" height="26" as="geometry" />
        </mxCell>
        <mxCell id="zkfFHV4jXpPFQw0GAbJ--15" value="" style="line;html=1;strokeWidth=1;align=left;verticalAlign=middle;spacingTop=-1;spacingLeft=3;spacingRight=3;rotatable=0;labelPosition=right;points=[];portConstraint=eastwest;" parent="zkfFHV4jXpPFQw0GAbJ--13" vertex="1">
          <mxGeometry y="104" width="160" height="8" as="geometry" />
        </mxCell>
        <mxCell id="D50i9omcUcY36TqTnj20-23" value="upgradeLevel()" style="text;align=left;verticalAlign=top;spacingLeft=4;spacingRight=4;overflow=hidden;rotatable=0;points=[[0,0.5],[1,0.5]];portConstraint=eastwest;fontStyle=4" vertex="1" parent="zkfFHV4jXpPFQw0GAbJ--13">
          <mxGeometry y="112" width="160" height="26" as="geometry" />
        </mxCell>
        <mxCell id="D50i9omcUcY36TqTnj20-35" style="edgeStyle=orthogonalEdgeStyle;rounded=0;orthogonalLoop=1;jettySize=auto;html=1;exitX=0.5;exitY=0;exitDx=0;exitDy=0;entryX=1;entryY=0.5;entryDx=0;entryDy=0;endArrow=ERmany;endFill=0;strokeWidth=2;" edge="1" parent="WIyWlLk6GJQsqaUBKTNV-1" source="zkfFHV4jXpPFQw0GAbJ--17" target="D50i9omcUcY36TqTnj20-1">
          <mxGeometry relative="1" as="geometry" />
        </mxCell>
        <mxCell id="zkfFHV4jXpPFQw0GAbJ--17" value="Department" style="swimlane;fontStyle=0;align=center;verticalAlign=top;childLayout=stackLayout;horizontal=1;startSize=26;horizontalStack=0;resizeParent=1;resizeLast=0;collapsible=1;marginBottom=0;rounded=0;shadow=0;strokeWidth=1;" parent="WIyWlLk6GJQsqaUBKTNV-1" vertex="1">
          <mxGeometry x="490" y="136" width="212" height="242" as="geometry">
            <mxRectangle x="550" y="140" width="160" height="26" as="alternateBounds" />
          </mxGeometry>
        </mxCell>
        <mxCell id="zkfFHV4jXpPFQw0GAbJ--18" value="id: String" style="text;align=left;verticalAlign=top;spacingLeft=4;spacingRight=4;overflow=hidden;rotatable=0;points=[[0,0.5],[1,0.5]];portConstraint=eastwest;" parent="zkfFHV4jXpPFQw0GAbJ--17" vertex="1">
          <mxGeometry y="26" width="212" height="26" as="geometry" />
        </mxCell>
        <mxCell id="zkfFHV4jXpPFQw0GAbJ--19" value="name: String" style="text;align=left;verticalAlign=top;spacingLeft=4;spacingRight=4;overflow=hidden;rotatable=0;points=[[0,0.5],[1,0.5]];portConstraint=eastwest;rounded=0;shadow=0;html=0;" parent="zkfFHV4jXpPFQw0GAbJ--17" vertex="1">
          <mxGeometry y="52" width="212" height="26" as="geometry" />
        </mxCell>
        <mxCell id="zkfFHV4jXpPFQw0GAbJ--21" value="head: Employee" style="text;align=left;verticalAlign=top;spacingLeft=4;spacingRight=4;overflow=hidden;rotatable=0;points=[[0,0.5],[1,0.5]];portConstraint=eastwest;rounded=0;shadow=0;html=0;" parent="zkfFHV4jXpPFQw0GAbJ--17" vertex="1">
          <mxGeometry y="78" width="212" height="26" as="geometry" />
        </mxCell>
        <mxCell id="zkfFHV4jXpPFQw0GAbJ--22" value="employees: List&lt;Employee&gt;" style="text;align=left;verticalAlign=top;spacingLeft=4;spacingRight=4;overflow=hidden;rotatable=0;points=[[0,0.5],[1,0.5]];portConstraint=eastwest;rounded=0;shadow=0;html=0;" parent="zkfFHV4jXpPFQw0GAbJ--17" vertex="1">
          <mxGeometry y="104" width="212" height="26" as="geometry" />
        </mxCell>
        <mxCell id="zkfFHV4jXpPFQw0GAbJ--23" value="" style="line;html=1;strokeWidth=1;align=left;verticalAlign=middle;spacingTop=-1;spacingLeft=3;spacingRight=3;rotatable=0;labelPosition=right;points=[];portConstraint=eastwest;" parent="zkfFHV4jXpPFQw0GAbJ--17" vertex="1">
          <mxGeometry y="130" width="212" height="8" as="geometry" />
        </mxCell>
        <mxCell id="zkfFHV4jXpPFQw0GAbJ--24" value="addEmployee(Employee)" style="text;align=left;verticalAlign=top;spacingLeft=4;spacingRight=4;overflow=hidden;rotatable=0;points=[[0,0.5],[1,0.5]];portConstraint=eastwest;" parent="zkfFHV4jXpPFQw0GAbJ--17" vertex="1">
          <mxGeometry y="138" width="212" height="26" as="geometry" />
        </mxCell>
        <mxCell id="D50i9omcUcY36TqTnj20-30" value="removeEmployee(Employee)" style="text;align=left;verticalAlign=top;spacingLeft=4;spacingRight=4;overflow=hidden;rotatable=0;points=[[0,0.5],[1,0.5]];portConstraint=eastwest;" vertex="1" parent="zkfFHV4jXpPFQw0GAbJ--17">
          <mxGeometry y="164" width="212" height="26" as="geometry" />
        </mxCell>
        <mxCell id="D50i9omcUcY36TqTnj20-31" value="removeEmployee(Employee)" style="text;align=left;verticalAlign=top;spacingLeft=4;spacingRight=4;overflow=hidden;rotatable=0;points=[[0,0.5],[1,0.5]];portConstraint=eastwest;" vertex="1" parent="zkfFHV4jXpPFQw0GAbJ--17">
          <mxGeometry y="190" width="212" height="26" as="geometry" />
        </mxCell>
        <mxCell id="D50i9omcUcY36TqTnj20-32" value="getEmployeeCount(): int" style="text;align=left;verticalAlign=top;spacingLeft=4;spacingRight=4;overflow=hidden;rotatable=0;points=[[0,0.5],[1,0.5]];portConstraint=eastwest;" vertex="1" parent="zkfFHV4jXpPFQw0GAbJ--17">
          <mxGeometry y="216" width="212" height="26" as="geometry" />
        </mxCell>
        <mxCell id="D50i9omcUcY36TqTnj20-36" style="edgeStyle=orthogonalEdgeStyle;rounded=0;orthogonalLoop=1;jettySize=auto;html=1;exitX=0;exitY=0.5;exitDx=0;exitDy=0;entryX=0;entryY=0.5;entryDx=0;entryDy=0;strokeWidth=2;" edge="1" parent="WIyWlLk6GJQsqaUBKTNV-1" source="zkfFHV4jXpPFQw0GAbJ--3" target="zkfFHV4jXpPFQw0GAbJ--7">
          <mxGeometry relative="1" as="geometry" />
        </mxCell>
        <mxCell id="D50i9omcUcY36TqTnj20-39" style="edgeStyle=orthogonalEdgeStyle;rounded=0;orthogonalLoop=1;jettySize=auto;html=1;exitX=0;exitY=0.5;exitDx=0;exitDy=0;entryX=1;entryY=0.5;entryDx=0;entryDy=0;startArrow=ERmany;startFill=0;endArrow=ERmany;endFill=0;strokeWidth=2;" edge="1" parent="WIyWlLk6GJQsqaUBKTNV-1" source="zkfFHV4jXpPFQw0GAbJ--1" target="zkfFHV4jXpPFQw0GAbJ--14">
          <mxGeometry relative="1" as="geometry" />
        </mxCell>
      </root>
    </mxGraphModel>
  </diagram>
  <diagram id="MRw0FermyK-bcxlO2PBb" name="Страница — 3">
    <mxGraphModel dx="221408" dy="156272" grid="1" gridSize="10" guides="1" tooltips="1" connect="1" arrows="1" fold="1" page="1" pageScale="1" pageWidth="827" pageHeight="1169" math="0" shadow="0">
      <root>
        <mxCell id="0" />
        <mxCell id="1" parent="0" />
        <mxCell id="_GFk6nfrCUqYaw0dFr68-26" style="edgeStyle=orthogonalEdgeStyle;endArrow=block;html=1;" edge="1" parent="1" source="_GFk6nfrCUqYaw0dFr68-5" target="_GFk6nfrCUqYaw0dFr68-8" />
        <mxCell id="_GFk6nfrCUqYaw0dFr68-27" style="edgeStyle=orthogonalEdgeStyle;endArrow=block;html=1;" edge="1" parent="1" source="_GFk6nfrCUqYaw0dFr68-5" target="_GFk6nfrCUqYaw0dFr68-10" />
        <mxCell id="_GFk6nfrCUqYaw0dFr68-28" style="edgeStyle=orthogonalEdgeStyle;endArrow=block;html=1;" edge="1" parent="1" source="_GFk6nfrCUqYaw0dFr68-5" target="_GFk6nfrCUqYaw0dFr68-12" />
        <mxCell id="_GFk6nfrCUqYaw0dFr68-29" style="edgeStyle=orthogonalEdgeStyle;endArrow=block;html=1;" edge="1" parent="1" source="_GFk6nfrCUqYaw0dFr68-5" target="_GFk6nfrCUqYaw0dFr68-14" />
        <mxCell id="_GFk6nfrCUqYaw0dFr68-30" style="edgeStyle=orthogonalEdgeStyle;dashed=1;endArrow=none;html=1;" edge="1" parent="1" source="_GFk6nfrCUqYaw0dFr68-1" target="_GFk6nfrCUqYaw0dFr68-5" />
        <mxCell id="_GFk6nfrCUqYaw0dFr68-31" style="edgeStyle=orthogonalEdgeStyle;dashed=1;endArrow=none;html=1;" edge="1" parent="1" source="_GFk6nfrCUqYaw0dFr68-3" target="_GFk6nfrCUqYaw0dFr68-5" />
        <mxCell id="_GFk6nfrCUqYaw0dFr68-32" style="edgeStyle=orthogonalEdgeStyle;endArrow=diamond;html=1;" edge="1" parent="1" source="_GFk6nfrCUqYaw0dFr68-19" target="_GFk6nfrCUqYaw0dFr68-16" />
        <mxCell id="_GFk6nfrCUqYaw0dFr68-33" style="edgeStyle=orthogonalEdgeStyle;endArrow=diamond;html=1;" edge="1" parent="1" source="_GFk6nfrCUqYaw0dFr68-19" target="_GFk6nfrCUqYaw0dFr68-24" />
        <mxCell id="_GFk6nfrCUqYaw0dFr68-34" style="edgeStyle=orthogonalEdgeStyle;endArrow=diamond;html=1;" edge="1" parent="1" source="_GFk6nfrCUqYaw0dFr68-19" target="_GFk6nfrCUqYaw0dFr68-25" />
        <mxCell id="_GFk6nfrCUqYaw0dFr68-35" style="edgeStyle=orthogonalEdgeStyle;endArrow=block;html=1;" edge="1" parent="1" source="_GFk6nfrCUqYaw0dFr68-22" target="_GFk6nfrCUqYaw0dFr68-19" />
        <mxCell id="_GFk6nfrCUqYaw0dFr68-23" value="onKeyPress(key: string): void" style="text;html=1;whiteSpace=wrap;" vertex="1" parent="1">
          <mxGeometry x="1940" y="2040" width="200" height="40" as="geometry" />
        </mxCell>
        <mxCell id="_GFk6nfrCUqYaw0dFr68-72" style="edgeStyle=orthogonalEdgeStyle;endArrow=block;html=1;" edge="1" parent="1" source="_GFk6nfrCUqYaw0dFr68-45" target="_GFk6nfrCUqYaw0dFr68-48" />
        <mxCell id="_GFk6nfrCUqYaw0dFr68-73" style="edgeStyle=orthogonalEdgeStyle;endArrow=block;html=1;" edge="1" parent="1" source="_GFk6nfrCUqYaw0dFr68-45" target="_GFk6nfrCUqYaw0dFr68-50" />
        <mxCell id="_GFk6nfrCUqYaw0dFr68-74" style="edgeStyle=orthogonalEdgeStyle;endArrow=block;html=1;" edge="1" parent="1" source="_GFk6nfrCUqYaw0dFr68-45" target="_GFk6nfrCUqYaw0dFr68-52" />
        <mxCell id="_GFk6nfrCUqYaw0dFr68-75" style="edgeStyle=orthogonalEdgeStyle;endArrow=block;html=1;" edge="1" parent="1" source="_GFk6nfrCUqYaw0dFr68-45" target="_GFk6nfrCUqYaw0dFr68-54" />
        <mxCell id="_GFk6nfrCUqYaw0dFr68-76" style="edgeStyle=orthogonalEdgeStyle;dashed=1;endArrow=block;html=1;" edge="1" parent="1" source="_GFk6nfrCUqYaw0dFr68-36" target="_GFk6nfrCUqYaw0dFr68-45" />
        <mxCell id="_GFk6nfrCUqYaw0dFr68-77" style="edgeStyle=orthogonalEdgeStyle;dashed=1;endArrow=block;html=1;" edge="1" parent="1" source="_GFk6nfrCUqYaw0dFr68-38" target="_GFk6nfrCUqYaw0dFr68-45" />
        <mxCell id="_GFk6nfrCUqYaw0dFr68-78" style="edgeStyle=orthogonalEdgeStyle;dashed=1;endArrow=block;html=1;" edge="1" parent="1" source="_GFk6nfrCUqYaw0dFr68-38" target="_GFk6nfrCUqYaw0dFr68-42" />
        <mxCell id="_GFk6nfrCUqYaw0dFr68-79" style="edgeStyle=orthogonalEdgeStyle;dashed=1;endArrow=block;html=1;" edge="1" parent="1" source="_GFk6nfrCUqYaw0dFr68-40" target="_GFk6nfrCUqYaw0dFr68-45" />
        <mxCell id="_GFk6nfrCUqYaw0dFr68-85" style="edgeStyle=orthogonalEdgeStyle;endArrow=open;html=1;dashed=1;" edge="1" parent="1" source="_GFk6nfrCUqYaw0dFr68-62" target="_GFk6nfrCUqYaw0dFr68-59" />
        <mxCell id="_GFk6nfrCUqYaw0dFr68-86" style="edgeStyle=orthogonalEdgeStyle;endArrow=open;html=1;dashed=1;" edge="1" parent="1" source="_GFk6nfrCUqYaw0dFr68-59" target="_GFk6nfrCUqYaw0dFr68-70" />
        <mxCell id="_GFk6nfrCUqYaw0dFr68-87" style="edgeStyle=orthogonalEdgeStyle;endArrow=open;html=1;dashed=1;" edge="1" parent="1" source="_GFk6nfrCUqYaw0dFr68-67" target="_GFk6nfrCUqYaw0dFr68-45" />
        <mxCell id="_GFk6nfrCUqYaw0dFr68-89" value="&amp;nbsp;IMovable" style="shape=swimlane;fontStyle=1;html=1;startSize=20;" vertex="1" parent="1">
          <mxGeometry x="-200" y="740" width="200" height="90" as="geometry" />
        </mxCell>
        <mxCell id="_GFk6nfrCUqYaw0dFr68-90" value="moveLeft(): void&lt;div&gt;moveRight(): void&lt;/div&gt;&lt;div&gt;moveDown(): void&lt;/div&gt;&lt;div&gt;rotate(): void&lt;/div&gt;" style="text;html=1;whiteSpace=wrap;" vertex="1" parent="_GFk6nfrCUqYaw0dFr68-89">
          <mxGeometry y="20" width="200" height="60" as="geometry" />
        </mxCell>
        <mxCell id="_GFk6nfrCUqYaw0dFr68-91" value="IDrawable" style="shape=swimlane;fontStyle=1;html=1;startSize=20;" vertex="1" parent="1">
          <mxGeometry x="-370" y="670" width="200" height="60" as="geometry" />
        </mxCell>
        <mxCell id="_GFk6nfrCUqYaw0dFr68-92" value="draw(): void" style="text;html=1;whiteSpace=wrap;" vertex="1" parent="_GFk6nfrCUqYaw0dFr68-91">
          <mxGeometry y="20" width="200" height="40" as="geometry" />
        </mxCell>
        <mxCell id="_GFk6nfrCUqYaw0dFr68-93" value="ICollidable" style="shape=swimlane;fontStyle=1;html=1;startSize=20;" vertex="1" parent="1">
          <mxGeometry x="340" y="860" width="200" height="60" as="geometry" />
        </mxCell>
        <mxCell id="_GFk6nfrCUqYaw0dFr68-94" value="checkCollision(): boolean" style="text;html=1;whiteSpace=wrap;" vertex="1" parent="_GFk6nfrCUqYaw0dFr68-93">
          <mxGeometry y="20" width="200" height="40" as="geometry" />
        </mxCell>
        <mxCell id="_GFk6nfrCUqYaw0dFr68-95" value="Block" style="shape=swimlane;fontStyle=0;html=1;startSize=20;" vertex="1" parent="1">
          <mxGeometry x="-613" y="840" width="200" height="120" as="geometry" />
        </mxCell>
        <mxCell id="_GFk6nfrCUqYaw0dFr68-96" value="x: int&lt;div&gt;y: int&lt;/div&gt;&lt;div&gt;color: Color&lt;/div&gt;" style="text;html=1;whiteSpace=wrap;" vertex="1" parent="_GFk6nfrCUqYaw0dFr68-95">
          <mxGeometry y="20" width="200" height="40" as="geometry" />
        </mxCell>
        <mxCell id="_GFk6nfrCUqYaw0dFr68-97" value="draw(): void&lt;div&gt;setPosition(x: int, y: int): void&lt;/div&gt;" style="text;html=1;whiteSpace=wrap;" vertex="1" parent="_GFk6nfrCUqYaw0dFr68-95">
          <mxGeometry y="70" width="200" height="40" as="geometry" />
        </mxCell>
        <mxCell id="_GFk6nfrCUqYaw0dFr68-98" value="Shape" style="shape=swimlane;fontStyle=2;html=1;startSize=20;" vertex="1" parent="1">
          <mxGeometry x="-90" y="860" width="220" height="210" as="geometry" />
        </mxCell>
        <mxCell id="_GFk6nfrCUqYaw0dFr68-99" value="positionX: int&lt;div&gt;positionY: int&lt;/div&gt;&lt;div&gt;rotation: int&lt;/div&gt;&lt;div&gt;blocks: Block[4]&lt;/div&gt;&lt;div&gt;color: Color&lt;/div&gt;" style="text;html=1;whiteSpace=wrap;" vertex="1" parent="_GFk6nfrCUqYaw0dFr68-98">
          <mxGeometry y="20" width="220" height="60" as="geometry" />
        </mxCell>
        <mxCell id="_GFk6nfrCUqYaw0dFr68-100" value="moveLeft(): void&lt;div&gt;moveRight(): void&lt;/div&gt;&lt;div&gt;moveDown(): void&lt;/div&gt;&lt;div&gt;rotate(): void\ndraw(): void&lt;/div&gt;&lt;div&gt;checkCollision(): boolean&lt;/div&gt;&lt;div&gt;getBlocks(): Block[]&lt;/div&gt;" style="text;html=1;whiteSpace=wrap;" vertex="1" parent="_GFk6nfrCUqYaw0dFr68-98">
          <mxGeometry y="100" width="220" height="60" as="geometry" />
        </mxCell>
        <mxCell id="_GFk6nfrCUqYaw0dFr68-101" value="LShape" style="shape=swimlane;fontStyle=0;html=1;startSize=20;" vertex="1" parent="1">
          <mxGeometry x="-310" y="1010" width="160" height="80" as="geometry" />
        </mxCell>
        <mxCell id="_GFk6nfrCUqYaw0dFr68-102" value="LShape()&lt;div&gt;rotate(): void&lt;/div&gt;&lt;div&gt;getBlocks(): Block[]&lt;/div&gt;" style="text;html=1;whiteSpace=wrap;" vertex="1" parent="_GFk6nfrCUqYaw0dFr68-101">
          <mxGeometry y="20" width="160" height="60" as="geometry" />
        </mxCell>
        <mxCell id="_GFk6nfrCUqYaw0dFr68-103" value="TShape" style="shape=swimlane;fontStyle=0;html=1;startSize=20;" vertex="1" parent="1">
          <mxGeometry x="-280" y="1160" width="160" height="80" as="geometry" />
        </mxCell>
        <mxCell id="_GFk6nfrCUqYaw0dFr68-104" value="TShape()&lt;div&gt;rotate(): void&lt;/div&gt;&lt;div&gt;getBlocks(): Block[]&lt;/div&gt;" style="text;html=1;whiteSpace=wrap;" vertex="1" parent="_GFk6nfrCUqYaw0dFr68-103">
          <mxGeometry y="20" width="160" height="60" as="geometry" />
        </mxCell>
        <mxCell id="_GFk6nfrCUqYaw0dFr68-105" value="OShape" style="shape=swimlane;fontStyle=0;html=1;startSize=20;" vertex="1" parent="1">
          <mxGeometry x="50" y="1120" width="160" height="80" as="geometry" />
        </mxCell>
        <mxCell id="_GFk6nfrCUqYaw0dFr68-106" value="OShape()&lt;div&gt;getBlocks(): Block[]&lt;/div&gt;" style="text;html=1;whiteSpace=wrap;" vertex="1" parent="_GFk6nfrCUqYaw0dFr68-105">
          <mxGeometry y="20" width="160" height="60" as="geometry" />
        </mxCell>
        <mxCell id="_GFk6nfrCUqYaw0dFr68-107" value="IShape" style="shape=swimlane;fontStyle=0;html=1;startSize=20;" vertex="1" parent="1">
          <mxGeometry x="240" y="1210" width="160" height="80" as="geometry" />
        </mxCell>
        <mxCell id="_GFk6nfrCUqYaw0dFr68-108" value="IShape()&lt;div&gt;rotate(): void&lt;/div&gt;&lt;div&gt;getBlocks(): Block[]&lt;/div&gt;" style="text;html=1;whiteSpace=wrap;" vertex="1" parent="_GFk6nfrCUqYaw0dFr68-107">
          <mxGeometry y="20" width="160" height="60" as="geometry" />
        </mxCell>
        <mxCell id="_GFk6nfrCUqYaw0dFr68-109" value="Board" style="shape=swimlane;fontStyle=0;html=1;startSize=20;" vertex="1" parent="1">
          <mxGeometry x="-600" y="1090" width="220" height="160" as="geometry" />
        </mxCell>
        <mxCell id="_GFk6nfrCUqYaw0dFr68-110" value="width: int\nheight: int&lt;div&gt;grid: Block[][]&lt;/div&gt;&lt;div&gt;staticBlocks: Block[]&lt;/div&gt;" style="text;html=1;whiteSpace=wrap;" vertex="1" parent="_GFk6nfrCUqYaw0dFr68-109">
          <mxGeometry y="20" width="220" height="50" as="geometry" />
        </mxCell>
        <mxCell id="_GFk6nfrCUqYaw0dFr68-111" value="addShape(shape: Shape): void&lt;div&gt;removeCompletedLines(): int&lt;/div&gt;&lt;div&gt;checkCollision(shape: Shape): boolean&lt;/div&gt;&lt;div&gt;draw(): void&lt;/div&gt;&lt;div&gt;clear(): void&lt;/div&gt;" style="text;html=1;whiteSpace=wrap;" vertex="1" parent="_GFk6nfrCUqYaw0dFr68-109">
          <mxGeometry y="70" width="220" height="50" as="geometry" />
        </mxCell>
        <mxCell id="_GFk6nfrCUqYaw0dFr68-112" value="GameManager" style="shape=swimlane;fontStyle=0;html=1;startSize=20;" vertex="1" parent="1">
          <mxGeometry x="-40" y="1500" width="220" height="220" as="geometry" />
        </mxCell>
        <mxCell id="_GFk6nfrCUqYaw0dFr68-113" value="currentShape: Shape&lt;div&gt;nextShape: Shape&lt;/div&gt;&lt;div&gt;board: Board&lt;/div&gt;&lt;div&gt;score: int\nlevel: int&lt;/div&gt;&lt;div&gt;isGameOver: boolean&lt;/div&gt;&lt;div&gt;isPaused: boolean&lt;/div&gt;" style="text;html=1;whiteSpace=wrap;" vertex="1" parent="_GFk6nfrCUqYaw0dFr68-112">
          <mxGeometry y="20" width="220" height="60" as="geometry" />
        </mxCell>
        <mxCell id="_GFk6nfrCUqYaw0dFr68-114" value="start(): void&lt;div&gt;update(): void&lt;/div&gt;&lt;div&gt;pause(): void&lt;/div&gt;&lt;div&gt;resume(): void&lt;/div&gt;&lt;div&gt;gameOver(): void&lt;/div&gt;&lt;div&gt;spawnNewShape(): void&lt;/div&gt;" style="text;html=1;whiteSpace=wrap;" vertex="1" parent="_GFk6nfrCUqYaw0dFr68-112">
          <mxGeometry y="120" width="220" height="40" as="geometry" />
        </mxCell>
        <mxCell id="_GFk6nfrCUqYaw0dFr68-115" value="InputHandler" style="shape=swimlane;fontStyle=0;html=1;startSize=20;" vertex="1" parent="1">
          <mxGeometry x="400" y="1310" width="200" height="80" as="geometry" />
        </mxCell>
        <mxCell id="_GFk6nfrCUqYaw0dFr68-116" value="handleInput(): void&lt;div&gt;onKeyPress(key: string): void&lt;/div&gt;&lt;div&gt;bindKeys(): void&lt;/div&gt;" style="text;html=1;whiteSpace=wrap;" vertex="1" parent="_GFk6nfrCUqYaw0dFr68-115">
          <mxGeometry y="20" width="200" height="60" as="geometry" />
        </mxCell>
        <mxCell id="_GFk6nfrCUqYaw0dFr68-117" value="ScoreBoard" style="shape=swimlane;fontStyle=0;html=1;startSize=20;" vertex="1" parent="1">
          <mxGeometry x="-340" y="1520" width="180" height="120" as="geometry" />
        </mxCell>
        <mxCell id="_GFk6nfrCUqYaw0dFr68-118" value="score: int\nlevel: int\nlines: int" style="text;html=1;whiteSpace=wrap;" vertex="1" parent="_GFk6nfrCUqYaw0dFr68-117">
          <mxGeometry y="20" width="180" height="40" as="geometry" />
        </mxCell>
        <mxCell id="_GFk6nfrCUqYaw0dFr68-119" value="updateScore(lines: int): void\nincreaseLevel(): void\ndraw(): void" style="text;html=1;whiteSpace=wrap;" vertex="1" parent="_GFk6nfrCUqYaw0dFr68-117">
          <mxGeometry y="60" width="180" height="20" as="geometry" />
        </mxCell>
        <mxCell id="_GFk6nfrCUqYaw0dFr68-120" value="NextShapePreview" style="shape=swimlane;fontStyle=0;html=1;startSize=20;" vertex="1" parent="1">
          <mxGeometry x="-150" y="1290" width="200" height="90" as="geometry" />
        </mxCell>
        <mxCell id="_GFk6nfrCUqYaw0dFr68-121" value="nextShape: Shape" style="text;html=1;whiteSpace=wrap;" vertex="1" parent="_GFk6nfrCUqYaw0dFr68-120">
          <mxGeometry y="20" width="200" height="40" as="geometry" />
        </mxCell>
        <mxCell id="_GFk6nfrCUqYaw0dFr68-122" value="setNextShape(shape: Shape): void&lt;div&gt;draw(): void&lt;/div&gt;" style="text;html=1;whiteSpace=wrap;" vertex="1" parent="_GFk6nfrCUqYaw0dFr68-120">
          <mxGeometry y="50" width="200" height="20" as="geometry" />
        </mxCell>
        <mxCell id="_GFk6nfrCUqYaw0dFr68-123" value="ShapeFactory" style="shape=swimlane;fontStyle=0;html=1;startSize=20;" vertex="1" parent="1">
          <mxGeometry x="280" y="1530" width="180" height="50" as="geometry" />
        </mxCell>
        <mxCell id="_GFk6nfrCUqYaw0dFr68-124" value="createRandomShape(): Shape" style="text;html=1;whiteSpace=wrap;" vertex="1" parent="_GFk6nfrCUqYaw0dFr68-123">
          <mxGeometry y="20" width="180" height="30" as="geometry" />
        </mxCell>
        <mxCell id="_GFk6nfrCUqYaw0dFr68-125" style="edgeStyle=orthogonalEdgeStyle;endArrow=block;html=1;" edge="1" parent="1" source="_GFk6nfrCUqYaw0dFr68-98" target="_GFk6nfrCUqYaw0dFr68-101">
          <mxGeometry relative="1" as="geometry">
            <mxPoint y="1190" as="sourcePoint" />
            <mxPoint x="-280" y="1250" as="targetPoint" />
          </mxGeometry>
        </mxCell>
        <mxCell id="_GFk6nfrCUqYaw0dFr68-126" style="edgeStyle=orthogonalEdgeStyle;endArrow=block;html=1;" edge="1" parent="1" source="_GFk6nfrCUqYaw0dFr68-98" target="_GFk6nfrCUqYaw0dFr68-103">
          <mxGeometry relative="1" as="geometry">
            <mxPoint y="1190" as="sourcePoint" />
            <mxPoint x="-80" y="1250" as="targetPoint" />
            <Array as="points">
              <mxPoint x="10" y="1100" />
              <mxPoint x="-200" y="1100" />
            </Array>
          </mxGeometry>
        </mxCell>
        <mxCell id="_GFk6nfrCUqYaw0dFr68-127" style="edgeStyle=orthogonalEdgeStyle;endArrow=block;html=1;" edge="1" parent="1" source="_GFk6nfrCUqYaw0dFr68-98" target="_GFk6nfrCUqYaw0dFr68-105">
          <mxGeometry relative="1" as="geometry">
            <mxPoint y="1190" as="sourcePoint" />
            <mxPoint x="120" y="1250" as="targetPoint" />
          </mxGeometry>
        </mxCell>
        <mxCell id="_GFk6nfrCUqYaw0dFr68-128" style="edgeStyle=orthogonalEdgeStyle;endArrow=block;html=1;" edge="1" parent="1" source="_GFk6nfrCUqYaw0dFr68-98" target="_GFk6nfrCUqYaw0dFr68-107">
          <mxGeometry relative="1" as="geometry">
            <mxPoint y="1190" as="sourcePoint" />
            <mxPoint x="320" y="1250" as="targetPoint" />
          </mxGeometry>
        </mxCell>
        <mxCell id="_GFk6nfrCUqYaw0dFr68-129" style="edgeStyle=orthogonalEdgeStyle;dashed=1;endArrow=block;html=1;" edge="1" parent="1" source="_GFk6nfrCUqYaw0dFr68-89" target="_GFk6nfrCUqYaw0dFr68-98">
          <mxGeometry relative="1" as="geometry">
            <mxPoint x="-260" y="1020" as="sourcePoint" />
            <mxPoint y="1050" as="targetPoint" />
          </mxGeometry>
        </mxCell>
        <mxCell id="_GFk6nfrCUqYaw0dFr68-130" style="edgeStyle=orthogonalEdgeStyle;dashed=1;endArrow=block;html=1;" edge="1" parent="1" source="_GFk6nfrCUqYaw0dFr68-91" target="_GFk6nfrCUqYaw0dFr68-98">
          <mxGeometry relative="1" as="geometry">
            <mxPoint x="-10" y="1000" as="sourcePoint" />
            <mxPoint y="1050" as="targetPoint" />
            <Array as="points">
              <mxPoint x="40" y="700" />
            </Array>
          </mxGeometry>
        </mxCell>
        <mxCell id="_GFk6nfrCUqYaw0dFr68-131" style="edgeStyle=orthogonalEdgeStyle;dashed=1;endArrow=block;html=1;" edge="1" parent="1" source="_GFk6nfrCUqYaw0dFr68-91" target="_GFk6nfrCUqYaw0dFr68-95">
          <mxGeometry relative="1" as="geometry">
            <mxPoint x="-10" y="1000" as="sourcePoint" />
            <mxPoint x="-260" y="1050" as="targetPoint" />
          </mxGeometry>
        </mxCell>
        <mxCell id="_GFk6nfrCUqYaw0dFr68-132" style="edgeStyle=orthogonalEdgeStyle;dashed=1;endArrow=block;html=1;" edge="1" parent="1" source="_GFk6nfrCUqYaw0dFr68-93" target="_GFk6nfrCUqYaw0dFr68-98">
          <mxGeometry relative="1" as="geometry">
            <mxPoint x="240" y="1000" as="sourcePoint" />
            <mxPoint y="1050" as="targetPoint" />
          </mxGeometry>
        </mxCell>
        <mxCell id="_GFk6nfrCUqYaw0dFr68-133" style="edgeStyle=orthogonalEdgeStyle;endArrow=diamond;html=1;" edge="1" parent="1" source="_GFk6nfrCUqYaw0dFr68-112" target="_GFk6nfrCUqYaw0dFr68-109">
          <mxGeometry relative="1" as="geometry">
            <mxPoint x="20" y="1390" as="sourcePoint" />
            <mxPoint x="-250" y="1390" as="targetPoint" />
            <Array as="points">
              <mxPoint x="70" y="1490" />
              <mxPoint x="-490" y="1490" />
            </Array>
          </mxGeometry>
        </mxCell>
        <mxCell id="_GFk6nfrCUqYaw0dFr68-134" style="edgeStyle=orthogonalEdgeStyle;endArrow=diamond;html=1;" edge="1" parent="1" source="_GFk6nfrCUqYaw0dFr68-112" target="_GFk6nfrCUqYaw0dFr68-117">
          <mxGeometry relative="1" as="geometry">
            <mxPoint x="20" y="1390" as="sourcePoint" />
            <mxPoint x="-270" y="1530" as="targetPoint" />
          </mxGeometry>
        </mxCell>
        <mxCell id="_GFk6nfrCUqYaw0dFr68-135" style="edgeStyle=orthogonalEdgeStyle;endArrow=diamond;html=1;" edge="1" parent="1" source="_GFk6nfrCUqYaw0dFr68-112" target="_GFk6nfrCUqYaw0dFr68-120">
          <mxGeometry relative="1" as="geometry">
            <mxPoint x="20" y="1390" as="sourcePoint" />
            <mxPoint x="-40" y="1530" as="targetPoint" />
          </mxGeometry>
        </mxCell>
        <mxCell id="_GFk6nfrCUqYaw0dFr68-136" style="edgeStyle=orthogonalEdgeStyle;endArrow=open;html=1;" edge="1" parent="1" source="_GFk6nfrCUqYaw0dFr68-98" target="_GFk6nfrCUqYaw0dFr68-95">
          <mxGeometry relative="1" as="geometry">
            <mxPoint x="-110" y="1100" as="sourcePoint" />
            <mxPoint x="-260" y="1100" as="targetPoint" />
          </mxGeometry>
        </mxCell>
        <mxCell id="_GFk6nfrCUqYaw0dFr68-137" style="edgeStyle=orthogonalEdgeStyle;endArrow=open;html=1;" edge="1" parent="1" source="_GFk6nfrCUqYaw0dFr68-109" target="_GFk6nfrCUqYaw0dFr68-95">
          <mxGeometry relative="1" as="geometry">
            <mxPoint x="-250" y="1390" as="sourcePoint" />
            <mxPoint x="-260" y="1150" as="targetPoint" />
          </mxGeometry>
        </mxCell>
        <mxCell id="_GFk6nfrCUqYaw0dFr68-138" style="edgeStyle=orthogonalEdgeStyle;endArrow=open;html=1;dashed=1;" edge="1" parent="1" source="_GFk6nfrCUqYaw0dFr68-115" target="_GFk6nfrCUqYaw0dFr68-112">
          <mxGeometry relative="1" as="geometry">
            <mxPoint x="280" y="1370" as="sourcePoint" />
            <mxPoint x="130" y="1390" as="targetPoint" />
          </mxGeometry>
        </mxCell>
        <mxCell id="_GFk6nfrCUqYaw0dFr68-139" style="edgeStyle=orthogonalEdgeStyle;endArrow=open;html=1;dashed=1;" edge="1" parent="1" source="_GFk6nfrCUqYaw0dFr68-112" target="_GFk6nfrCUqYaw0dFr68-123">
          <mxGeometry relative="1" as="geometry">
            <mxPoint x="130" y="1390" as="sourcePoint" />
            <mxPoint x="190" y="1520" as="targetPoint" />
          </mxGeometry>
        </mxCell>
        <mxCell id="_GFk6nfrCUqYaw0dFr68-140" style="edgeStyle=orthogonalEdgeStyle;endArrow=open;html=1;dashed=1;" edge="1" parent="1" source="_GFk6nfrCUqYaw0dFr68-120" target="_GFk6nfrCUqYaw0dFr68-98">
          <mxGeometry relative="1" as="geometry">
            <mxPoint x="-40" y="1530" as="sourcePoint" />
            <mxPoint y="1190" as="targetPoint" />
          </mxGeometry>
        </mxCell>
      </root>
    </mxGraphModel>
  </diagram>
</mxfile>
